<svg width="443.65472250179363" height="340.5600219726562" viewBox="0 0 383 294"
  class="looka-1j8o68f">
  <defs id="SvgjsDefs5319"></defs>
  <g id="SvgjsG5320" featurekey="rootContainer" transform="matrix(1,0,0,1,0,0)" fill="#ffffff">
    <path xmlns="http://www.w3.org/2000/svg" fill-rule="nonzero"
      d="             M0,0             H383             V294             H0,0             z             M4,4             v286             h375             v-286             z     "></path>
  </g>
  <g id="SvgjsG5321" featurekey="symbolFeature-0"
    transform="matrix(6.082989516087862,0,0,6.082989516087862,91.6276331605352,10.958505241956068)"
    fill="#ffffff">
    <path xmlns="http://www.w3.org/2000/svg"
      d="M22.449,13.738c-0.139-0.49-0.717-0.607-0.783-0.621l-0.102,0.555c0.08,0.016,0.305,0.092,0.34,0.219  c0.109,0.385-0.004,1.779-0.25,1.859l-0.225-0.033l-0.078,0.215c-0.566,1.551-2.471,5.57-4.482,5.57c-0.004,0-0.004,0-0.007,0  c-0.164,0.01-0.273,0.012-0.37,0.014c-0.098-0.002-0.206-0.004-0.368-0.014c-0.004,0-0.007,0-0.007,0  c-1.995,0-3.899-4.02-4.464-5.57l-0.088-0.215l-0.227,0.035c-0.233-0.082-0.35-1.477-0.24-1.861c0.033-0.119,0.247-0.201,0.34-0.219  l-0.054-0.277l-0.049-0.277c-0.066,0.014-0.643,0.131-0.782,0.621c-0.088,0.311-0.136,1.818,0.334,2.359  c0.083,0.096,0.186,0.162,0.298,0.193c0.374,0.973,2.326,5.674,4.837,5.766v0.012c0.16,0.008,0.268,0.014,0.398,0.014  c0.024,0,0.056,0,0.088,0c0.021,0,0.048,0,0.065,0c0.141,0,0.262-0.008,0.443-0.018v-0.014c2.498-0.158,4.428-4.795,4.801-5.76  c0.111-0.031,0.215-0.098,0.297-0.193C22.586,15.557,22.533,14.049,22.449,13.738z"></path>
    <path xmlns="http://www.w3.org/2000/svg"
      d="M12.433,21.551l2.619,2.15l1.07,2.357l-8.317-3.053C7.805,23.006,10.136,21.346,12.433,21.551z"></path>
    <path xmlns="http://www.w3.org/2000/svg"
      d="M20.57,21.551l-2.619,2.15l-1.071,2.357l8.319-3.053C25.199,23.006,22.867,21.346,20.57,21.551z"></path>
    <path xmlns="http://www.w3.org/2000/svg"
      d="M25.869,23.443l-9.367,3.791l-9.368-3.791c0,0-1.853,1.127-1.678,1.543C7.302,29.379,16.502,32.5,16.502,32.5  s9.199-3.121,11.044-7.514C27.721,24.57,25.869,23.443,25.869,23.443z"></path>
    <path xmlns="http://www.w3.org/2000/svg"
      d="M10.364,13.018c1.274-0.283,2.327-0.693,3.185-1.129c-0.523-0.1-1.074-0.236-1.617-0.424  c-0.801-0.275-1.574-0.666-2.222-1.203c-0.099,0.596-0.188,1.207-0.275,1.826c-0.724,5.08-2.841,10.578-2.841,10.578  c1.66-1.26,5.183-2.703,5.183-2.703s-1.289-2.908-1.826-4.262C9.525,14.633,9.783,13.164,10.364,13.018z"></path>
    <path xmlns="http://www.w3.org/2000/svg"
      d="M21.227,19.963c0,0,3.523,1.443,5.184,2.703c0,0-2.119-5.498-2.842-10.578c-0.088-0.617-0.176-1.223-0.273-1.816  c-0.646,0.533-1.422,0.924-2.219,1.197c-0.543,0.186-1.094,0.322-1.617,0.422c0.855,0.436,1.908,0.844,3.18,1.127  c0.58,0.146,0.838,1.615,0.414,2.684C22.518,17.055,21.227,19.963,21.227,19.963z"></path>
    <path xmlns="http://www.w3.org/2000/svg"
      d="M16.498,9.771L9.75,7.07v2.668v0.109h0.017c0.658,0.611,1.49,1.033,2.346,1.328c2.103,0.723,4.333,0.664,4.394,0.662  c0.06,0.002,2.283,0.061,4.384-0.658c0.855-0.293,1.695-0.719,2.354-1.332V9.738V7.07L16.498,9.771z"></path>
    <polygon xmlns="http://www.w3.org/2000/svg"
      points="16.499,0.5 4.993,4.852 9.932,6.826 16.498,9.453 23.061,6.826 25.207,5.967 26.262,5.547 28.006,4.852 "></polygon>
    <polygon xmlns="http://www.w3.org/2000/svg"
      points="25.896,5.947 25.896,9.326 25.896,9.391 26.951,9.391 26.951,9.326 26.951,5.555 "></polygon>
    <polygon xmlns="http://www.w3.org/2000/svg"
      points="27.213,10.156 26.996,9.643 25.854,9.643 25.629,10.156 24.84,12.014 26.424,13.67 28.008,12.014 "></polygon>
  </g>
  <g id="SvgjsG5322" featurekey="nameFeature-0"
    transform="matrix(1.7425699609825567,0,0,1.7425699609825567,15.27525882309655,209.2044075033463)"
    fill="#ffffff">
    <path
      d="M1.4 40.08 c-0.4 0.04 -0.56 -1.36 -0.24 -1.44 c2.32 -0.6 4.12 -0.96 4.12 -3.92 l0 -17.76 c0 -2.56 -1.64 -3.24 -3.36 -3.68 c-0.32 -0.08 -0.12 -1.4 0.2 -1.36 c2.92 0.32 7.96 0.24 10.4 0.24 c3.64 0 6.28 -0.16 9.56 -0.24 c0.96 0 0.96 0.64 0.76 1.56 l-0.96 3.8 c-0.12 0.56 -1.12 0.56 -1.28 0 c-0.6 -1.96 -1.8 -3.08 -6.8 -3.08 c-2.8 0 -3.72 0.72 -3.72 2.8 l0 6.52 c0 1.04 0.52 1.24 1.32 1.24 l0.88 0 c3.24 0 6.04 -0.32 7.68 -1.8 c0.4 -0.36 1.28 -0.28 0.92 0.52 l-2.28 5.04 c-0.32 0.72 -0.92 0.64 -1.36 0.04 c-0.92 -1.28 -2.96 -1.8 -5.28 -1.8 l-0.56 0 c-0.8 0 -1.32 0.2 -1.32 1.24 l0 6.72 c0 2.28 0.96 3.12 4.28 3.12 c6.04 0 8.44 -2.76 9.4 -4.28 c0.28 -0.44 1.36 -0.24 1.36 0.44 c0 2.04 -1.72 6.08 -4.24 6.08 c-2.24 -0.12 -4.44 -0.24 -7.8 -0.24 c-3.68 0 -8.04 -0.12 -11.68 0.24 z M57.599999999999994 38.64 c0.56 0.08 0.4 1.36 -0.08 1.36 l-10.56 0 c-0.52 0 -0.56 -1.28 -0.12 -1.36 c1.48 -0.28 3.08 -0.8 1.6 -4.24 l-0.44 -1 c-0.4 -0.96 -1.08 -1.04 -2.28 -1.04 l-8.16 0 c-1.2 0 -1.88 0.08 -2.28 1.04 l-0.4 1 c-1.4 3.44 0.12 3.96 2.04 4.24 c0.52 0.08 0.4 1.36 -0.12 1.36 l-8.64 0 c-0.48 0 -0.6 -1.28 -0.12 -1.36 c1.64 -0.28 2.6 -0.84 4.08 -4.24 l6.76 -15.52 c1.56 -3.52 2.04 -5.16 2.04 -6.68 c0 -0.24 2.8 -0.88 2.92 -0.6 l9.76 22.76 c1.44 3.4 2.4 4.04 4 4.28 z M45.44 30.119999999999997 c0.56 0 1.16 -0.08 0.92 -0.64 l-4.68 -11.2 l-4.72 11.2 c-0.24 0.56 0.36 0.64 0.92 0.64 l7.56 0 z M69.2 40.64 c-3.28 0 -8.28 -1.44 -7.8 -3.2 l0.4 -1.48 c1.12 -4.2 2.44 1.96 9.04 1.96 c3.36 0 5 -1.64 5 -3.96 c0 -1.88 -1.2 -2.68 -4.04 -4.44 l-3.88 -2.44 c-4.32 -2.72 -6.08 -4.4 -6.08 -7.4 c0 -4.92 4.8 -8.32 9.76 -8.32 c3.04 0 6.92 1.32 6.48 2.68 l-0.48 1.52 c-1.24 3.88 -2.24 -1.48 -7.72 -1.48 c-2.84 0 -4.32 1.44 -4.32 3.56 c0 1.8 1.08 2.8 3.76 4.44 l4.2 2.6 c4.24 2.64 5.96 4.44 5.96 7.32 c0 5 -4.92 8.64 -10.28 8.64 z M110.24000000000001 12 c0.48 0 0.6 1.28 0.12 1.36 c-1.56 0.24 -2.92 1.36 -4.76 4.24 l-6.4 10 l0 7.44 c0 2.8 1.6 3.28 4.08 3.6 c0.28 0.04 0.08 1.36 -0.24 1.36 l-12.52 0 c-0.32 0 -0.52 -1.32 -0.24 -1.36 c2.64 -0.36 4.12 -0.88 4.12 -3.6 l0 -7.28 l-6.72 -10.12 c-1.84 -2.76 -2.96 -4 -4.68 -4.28 c-0.52 -0.08 -0.4 -1.36 0.12 -1.36 l10.56 0 c0.52 0 0.6 1.28 0.12 1.36 c-1.76 0.28 -2.44 1.64 -0.72 4.24 l5.08 7.56 l4.88 -7.56 c1.68 -2.6 0.68 -3.92 -1.44 -4.24 c-0.56 -0.08 -0.4 -1.36 0.08 -1.36 l8.56 0 z M127.24000000000001 40 c-0.36 0 -0.6 -1.28 -0.28 -1.32 c2.76 -0.36 4.6 -0.92 4.6 -3.08 l0 -19.72 c0 -1 -0.36 -1.32 -1.32 -1.32 l-1.08 0 c-3.8 0 -5.92 0.88 -6.72 2.6 c-0.36 0.8 -1.72 0.68 -1.56 0 c0.36 -1.44 0.68 -2.68 0.92 -4.8 c0.08 -0.76 0.52 -0.72 1.24 -0.64 c1.84 0.2 3.52 0.28 11.12 0.28 s10.28 -0.08 12.2 -0.28 c0.72 -0.08 1.4 -0.12 1.16 0.64 c-0.6 1.88 -1 3.36 -1.24 4.8 c-0.12 0.68 -1.2 0.72 -1.36 0 c-0.4 -1.68 -2.16 -2.6 -5.6 -2.6 l-1.24 0 c-0.96 0 -1.56 0.32 -1.56 1.32 l0 19.72 c0 2.16 1.84 2.72 4.6 3.08 c0.32 0.04 0.08 1.32 -0.28 1.32 l-13.6 0 z M150.16000000000003 40.08 c-0.4 0.04 -0.56 -1.36 -0.24 -1.44 c2.32 -0.6 4.12 -0.96 4.12 -3.92 l0 -17.76 c0 -2.56 -1.64 -3.24 -3.36 -3.68 c-0.32 -0.08 -0.12 -1.4 0.2 -1.36 c2.92 0.32 7.96 0.24 10.4 0.24 c3.64 0 6.28 -0.16 9.56 -0.24 c0.96 0 0.96 0.64 0.76 1.56 l-0.96 3.8 c-0.12 0.56 -1.12 0.56 -1.28 0 c-0.6 -1.96 -1.8 -3.08 -6.8 -3.08 c-2.8 0 -3.72 0.72 -3.72 2.8 l0 6.52 c0 1.04 0.52 1.24 1.32 1.24 l0.88 0 c3.24 0 6.04 -0.32 7.68 -1.8 c0.4 -0.36 1.28 -0.28 0.92 0.52 l-2.28 5.04 c-0.32 0.72 -0.92 0.64 -1.36 0.04 c-0.92 -1.28 -2.96 -1.8 -5.28 -1.8 l-0.56 0 c-0.8 0 -1.32 0.2 -1.32 1.24 l0 6.72 c0 2.28 0.96 3.12 4.28 3.12 c6.04 0 8.44 -2.76 9.4 -4.28 c0.28 -0.44 1.36 -0.24 1.36 0.44 c0 2.04 -1.72 6.08 -4.24 6.08 c-2.24 -0.12 -4.44 -0.24 -7.8 -0.24 c-3.68 0 -8.04 -0.12 -11.68 0.24 z M193.48000000000002 40.64 c-6.72 0 -15.8 -3.92 -15.8 -14.12 c0 -6.92 4.24 -15.16 15.44 -15.16 c4.64 0 8.64 1.44 8.16 2.84 l-0.52 1.56 c-1.44 4.28 -3 -1.2 -10.12 -1.2 c-5.72 0 -8.52 3.72 -8.52 9.48 c0 9 6.84 12.76 12.32 12.76 c0.72 0 4.36 -0.56 6.44 -1.88 c0.32 -0.2 1.16 0.72 0.92 1.08 c-1.72 2.52 -7.08 4.64 -8.32 4.64 z"></path>
  </g>
</svg>