<svg width="525.1200073242188" height="276.8896097136597" viewBox="0 0 345 181.91444625767707"
  class="looka-1j8o68f">
  <defs id="SvgjsDefs1552"></defs>
  <g id="SvgjsG1553" featurekey="symbolFeature-0"
    transform="matrix(1.9685038187520294,0,0,1.9685038187520294,-35.39369776005195,-8.36113443983577)"
    fill="#00adb5">
    <title xmlns="http://www.w3.org/2000/svg">student</title>
    <g xmlns="http://www.w3.org/2000/svg" data-name="Layer 22">
      <path
        d="M81,16.44,50,4.3a.72.72,0,0,0-.54,0l-31,12.14a.76.76,0,0,0-.48.7.75.75,0,0,0,.48.7l6.4,2.51V30.41a3.51,3.51,0,0,0-2.79,3.44v2.4a.75.75,0,0,0,.75.75h5.59a.76.76,0,0,0,.75-.75v-2.4a3.51,3.51,0,0,0-2.8-3.44V20.94l5.75,2.25v9.3a2,2,0,0,0,1.25,1.69l.17.08.09.46.57,2.48a2.93,2.93,0,0,0-1.8.26c-1.84.95-2.23,3.7-.9,6.27A6.42,6.42,0,0,0,34,46.41a3.85,3.85,0,0,0,1.84.51,3,3,0,0,0,.59-.07l0,.13a5.93,5.93,0,0,0,2.31,3.48l2.44,1.76-.94,5.32v.05l-.19,1.06a23.18,23.18,0,0,0-3.54.66l-.75.22h0c-.5.16-1,.33-1.48.52l-.07,0a22.93,22.93,0,0,0-7.71,5h0a23.13,23.13,0,0,0-7.12,16.78V95.91a.75.75,0,0,0,.75.75H79.79a.76.76,0,0,0,.75-.75V81.83a23.18,23.18,0,0,0-7.08-16.74h0a23.15,23.15,0,0,0-7.77-5l-.06,0-.71-.26c-.24-.09-.49-.17-.73-.24h0l0,0c-.37-.11-.76-.23-1.1-.31l-.12,0c-.26-.07-.51-.13-.74-.17l-.74-.16-.91-.14-.67-.08-1.13-6.42,2.44-1.76A6,6,0,0,0,63.48,47l0-.13a3,3,0,0,0,.59.07,5.34,5.34,0,0,0,4.33-3.19c1.33-2.57.93-5.32-.9-6.27a2.87,2.87,0,0,0-1.81-.25l.57-2.49c0-.16.06-.32.09-.48l.23-.12a1.92,1.92,0,0,0,1.13-1.64V23.05L81,17.84a.75.75,0,0,0,.48-.7A.76.76,0,0,0,81,16.44ZM27.72,35.5H23.63V33.85a2,2,0,0,1,2-2h.07a2,2,0,0,1,2,2Zm38.51-3c-.27,1-6.55,2.39-17.24,2.28-10.43-.1-15.13-1.54-15.32-2.28V30.26c3.63,2.1,12.89,2.3,16.2,2.3h0c2.42,0,12.52-.13,16.36-2.33Zm.6,6.31c1,.55,1.17,2.49.26,4.25-.81,1.56-2.21,2.53-3.25,2.35l1-4.3a.83.83,0,0,0,0-.15l.47-2.08A1.73,1.73,0,0,1,66.83,38.79Zm-4.2,21.87.31.08-.63,1.44-8.52,6.48L51,63.77,57.35,60c.65,0,1.23,0,1.8.1.39,0,.78.08,1.18.14a7.37,7.37,0,0,1,.82.13l.71.14.67.16C62.59,60.66,62.56,60.66,62.63,60.66ZM79,95.16H20.93V81.83a21.63,21.63,0,0,1,5.64-14.65l.74,4.66a.78.78,0,0,0,.52.6l7.63,2.36-2.28,4.46a.79.79,0,0,0-.08.26.75.75,0,0,0,.29.68L44,88.41l.05,0,5.22,4a.7.7,0,0,0,.52.13.8.8,0,0,0,.15,0H50a.8.8,0,0,0,.15,0,.7.7,0,0,0,.52-.13l4-3.12h0l6.62-5.09,5.25-4a.74.74,0,0,0,.29-.68.61.61,0,0,0-.08-.26L64.56,74.8l7.63-2.36a.74.74,0,0,0,.52-.61l.74-4.59A21.69,21.69,0,0,1,79,81.83ZM54.42,60,50,62.62,45.52,60ZM39,65.06l6.65,5-.87,8.25Zm8.73,4L50,65l2.29,4Zm-.61,1.5h5.48l1.21,11.34L50,90,46,81.15Zm7-.18,7-5.36L55,79.09ZM40.76,60.07h.1C41.39,60,42,60,42.6,60L49,63.77l-2.79,4.89-8.44-6.41-.67-1.52A22.58,22.58,0,0,1,40.76,60.07Zm-5.93,1.4.8-.3,8.84,20.34,0,.08,3.65,8-3.21-2.35L34.8,79.39l2.4-4.7a.73.73,0,0,0,0-.63.8.8,0,0,0-.47-.43l-8-2.49-.85-5.28a21.5,21.5,0,0,1,6.89-4.36ZM72.14,65.9l-.84,5.25-8,2.48a.8.8,0,0,0-.47.43.77.77,0,0,0,0,.63l2.4,4.7L53.87,88.14l0,0-2,1.43,3.36-7.27,0-.08L63.61,63l.77-1.77h0l.73.27.06,0A21.66,21.66,0,0,1,72.14,65.9ZM58.28,58.5H58l-.85,0H42.8c-.39,0-.76,0-1.12,0h0l.12-.68s0,0,0-.07l.8-4.55,4.63,3.33a4.72,4.72,0,0,0,2.75.89h0a4.72,4.72,0,0,0,2.75-.89L55,54.94l2.41-1.74.94,5.3Zm-6.41-3.19a3.23,3.23,0,0,1-3.77,0l-8.41-6.07A4.4,4.4,0,0,1,38,46.65l-1.16-5,1.35.08A5.26,5.26,0,0,0,48.62,41a1.75,1.75,0,0,1,1.21-.32A1.73,1.73,0,0,1,51,41h0a5.26,5.26,0,0,0,10.47.71l1.67-.09-1.16,5a4.43,4.43,0,0,1-1.72,2.59ZM32.88,43c-.91-1.76-.79-3.7.26-4.25a1.33,1.33,0,0,1,.63-.15,2.21,2.21,0,0,1,.86.21l.48,2.09a.58.58,0,0,0,0,.14l1,4.31a2.19,2.19,0,0,1-1.36-.3A4.85,4.85,0,0,1,32.88,43Zm10.47,1.71A3.77,3.77,0,1,1,47.12,41,3.77,3.77,0,0,1,43.35,44.75ZM56.3,37.21A3.77,3.77,0,1,1,52.53,41,3.77,3.77,0,0,1,56.3,37.21Zm-5,2.21a4.42,4.42,0,0,0-2.93,0,5.27,5.27,0,0,0-2.82-3.22c1.44.06,2.93.1,4.41.1s2.79,0,4.14-.09A5.31,5.31,0,0,0,51.29,39.42ZM41.84,36a5.24,5.24,0,0,0-3.68,4.23l-1.71-.1-1.19-5.2A38.06,38.06,0,0,0,41.84,36Zm21.67,4.13-2,.11A5.23,5.23,0,0,0,57.86,36a39.11,39.11,0,0,0,6.84-1.1ZM49.5,30A.75.75,0,0,0,50,30l16.19-6.34v4.6c0,1.16-5.82,2.82-16.35,2.82h0c-10.43,0-16.2-1.67-16.2-2.82V23.78Zm.27-1.5L28.42,20.11,47.06,18a3.08,3.08,0,0,0,2.71,1.29c1.64,0,2.93-.93,2.93-2.11S51.41,15,49.77,15A3,3,0,0,0,47,16.45L25.59,18.93a.45.45,0,0,0-.11,0l-4.64-1.82L49.77,5.81,78.7,17.14ZM48.34,17.14c0-.17.5-.6,1.43-.6s1.43.43,1.43.6-.5.61-1.43.61S48.34,17.32,48.34,17.14Z"></path>
    </g>
  </g>
  <g id="SvgjsG1554" featurekey="nameFeature-0"
    transform="matrix(1.8235563940852952,0,0,1.8235563940852952,143.19510098778986,2.284401728338345)"
    fill="#393e46">
    <path
      d="M1.4 40.08 c-0.4 0.04 -0.56 -1.36 -0.24 -1.44 c2.32 -0.6 4.12 -0.96 4.12 -3.92 l0 -17.76 c0 -2.56 -1.64 -3.24 -3.36 -3.68 c-0.32 -0.08 -0.12 -1.4 0.2 -1.36 c2.92 0.32 7.96 0.24 10.4 0.24 c3.64 0 6.28 -0.16 9.56 -0.24 c0.96 0 0.96 0.64 0.76 1.56 l-0.96 3.8 c-0.12 0.56 -1.12 0.56 -1.28 0 c-0.6 -1.96 -1.8 -3.08 -6.8 -3.08 c-2.8 0 -3.72 0.72 -3.72 2.8 l0 6.52 c0 1.04 0.52 1.24 1.32 1.24 l0.88 0 c3.24 0 6.04 -0.32 7.68 -1.8 c0.4 -0.36 1.28 -0.28 0.92 0.52 l-2.28 5.04 c-0.32 0.72 -0.92 0.64 -1.36 0.04 c-0.92 -1.28 -2.96 -1.8 -5.28 -1.8 l-0.56 0 c-0.8 0 -1.32 0.2 -1.32 1.24 l0 6.72 c0 2.28 0.96 3.12 4.28 3.12 c6.04 0 8.44 -2.76 9.4 -4.28 c0.28 -0.44 1.36 -0.24 1.36 0.44 c0 2.04 -1.72 6.08 -4.24 6.08 c-2.24 -0.12 -4.44 -0.24 -7.8 -0.24 c-3.68 0 -8.04 -0.12 -11.68 0.24 z M57.599999999999994 38.64 c0.56 0.08 0.4 1.36 -0.08 1.36 l-10.56 0 c-0.52 0 -0.56 -1.28 -0.12 -1.36 c1.48 -0.28 3.08 -0.8 1.6 -4.24 l-0.44 -1 c-0.4 -0.96 -1.08 -1.04 -2.28 -1.04 l-8.16 0 c-1.2 0 -1.88 0.08 -2.28 1.04 l-0.4 1 c-1.4 3.44 0.12 3.96 2.04 4.24 c0.52 0.08 0.4 1.36 -0.12 1.36 l-8.64 0 c-0.48 0 -0.6 -1.28 -0.12 -1.36 c1.64 -0.28 2.6 -0.84 4.08 -4.24 l6.76 -15.52 c1.56 -3.52 2.04 -5.16 2.04 -6.68 c0 -0.24 2.8 -0.88 2.92 -0.6 l9.76 22.76 c1.44 3.4 2.4 4.04 4 4.28 z M45.44 30.119999999999997 c0.56 0 1.16 -0.08 0.92 -0.64 l-4.68 -11.2 l-4.72 11.2 c-0.24 0.56 0.36 0.64 0.92 0.64 l7.56 0 z M69.2 40.64 c-3.28 0 -8.28 -1.44 -7.8 -3.2 l0.4 -1.48 c1.12 -4.2 2.44 1.96 9.04 1.96 c3.36 0 5 -1.64 5 -3.96 c0 -1.88 -1.2 -2.68 -4.04 -4.44 l-3.88 -2.44 c-4.32 -2.72 -6.08 -4.4 -6.08 -7.4 c0 -4.92 4.8 -8.32 9.76 -8.32 c3.04 0 6.92 1.32 6.48 2.68 l-0.48 1.52 c-1.24 3.88 -2.24 -1.48 -7.72 -1.48 c-2.84 0 -4.32 1.44 -4.32 3.56 c0 1.8 1.08 2.8 3.76 4.44 l4.2 2.6 c4.24 2.64 5.96 4.44 5.96 7.32 c0 5 -4.92 8.64 -10.28 8.64 z M110.24000000000001 12 c0.48 0 0.6 1.28 0.12 1.36 c-1.56 0.24 -2.92 1.36 -4.76 4.24 l-6.4 10 l0 7.44 c0 2.8 1.6 3.28 4.08 3.6 c0.28 0.04 0.08 1.36 -0.24 1.36 l-12.52 0 c-0.32 0 -0.52 -1.32 -0.24 -1.36 c2.64 -0.36 4.12 -0.88 4.12 -3.6 l0 -7.28 l-6.72 -10.12 c-1.84 -2.76 -2.96 -4 -4.68 -4.28 c-0.52 -0.08 -0.4 -1.36 0.12 -1.36 l10.56 0 c0.52 0 0.6 1.28 0.12 1.36 c-1.76 0.28 -2.44 1.64 -0.72 4.24 l5.08 7.56 l4.88 -7.56 c1.68 -2.6 0.68 -3.92 -1.44 -4.24 c-0.56 -0.08 -0.4 -1.36 0.08 -1.36 l8.56 0 z"></path>
  </g>
  <g id="SvgjsG1555" featurekey="nameFeature-1"
    transform="matrix(2.469880942701125,0,0,2.469880942701125,142.0683139456825,57.94215098341952)"
    fill="#393e46">
    <path
      d="M7.56 40 c-0.36 0 -0.6 -1.28 -0.28 -1.32 c2.76 -0.36 4.6 -0.92 4.6 -3.08 l0 -19.72 c0 -1 -0.36 -1.32 -1.32 -1.32 l-1.08 0 c-3.8 0 -5.92 0.88 -6.72 2.6 c-0.36 0.8 -1.72 0.68 -1.56 0 c0.36 -1.44 0.68 -2.68 0.92 -4.8 c0.08 -0.76 0.52 -0.72 1.24 -0.64 c1.84 0.2 3.52 0.28 11.12 0.28 s10.28 -0.08 12.2 -0.28 c0.72 -0.08 1.4 -0.12 1.16 0.64 c-0.6 1.88 -1 3.36 -1.24 4.8 c-0.12 0.68 -1.2 0.72 -1.36 0 c-0.4 -1.68 -2.16 -2.6 -5.6 -2.6 l-1.24 0 c-0.96 0 -1.56 0.32 -1.56 1.32 l0 19.72 c0 2.16 1.84 2.72 4.6 3.08 c0.32 0.04 0.08 1.32 -0.28 1.32 l-13.6 0 z M30.48 40.08 c-0.4 0.04 -0.56 -1.36 -0.24 -1.44 c2.32 -0.6 4.12 -0.96 4.12 -3.92 l0 -17.76 c0 -2.56 -1.64 -3.24 -3.36 -3.68 c-0.32 -0.08 -0.12 -1.4 0.2 -1.36 c2.92 0.32 7.96 0.24 10.4 0.24 c3.64 0 6.28 -0.16 9.56 -0.24 c0.96 0 0.96 0.64 0.76 1.56 l-0.96 3.8 c-0.12 0.56 -1.12 0.56 -1.28 0 c-0.6 -1.96 -1.8 -3.08 -6.8 -3.08 c-2.8 0 -3.72 0.72 -3.72 2.8 l0 6.52 c0 1.04 0.52 1.24 1.32 1.24 l0.88 0 c3.24 0 6.04 -0.32 7.68 -1.8 c0.4 -0.36 1.28 -0.28 0.92 0.52 l-2.28 5.04 c-0.32 0.72 -0.92 0.64 -1.36 0.04 c-0.92 -1.28 -2.96 -1.8 -5.28 -1.8 l-0.56 0 c-0.8 0 -1.32 0.2 -1.32 1.24 l0 6.72 c0 2.28 0.96 3.12 4.28 3.12 c6.04 0 8.44 -2.76 9.4 -4.28 c0.28 -0.44 1.36 -0.24 1.36 0.44 c0 2.04 -1.72 6.08 -4.24 6.08 c-2.24 -0.12 -4.44 -0.24 -7.8 -0.24 c-3.68 0 -8.04 -0.12 -11.68 0.24 z M73.8 40.64 c-6.72 0 -15.8 -3.92 -15.8 -14.12 c0 -6.92 4.24 -15.16 15.44 -15.16 c4.64 0 8.64 1.44 8.16 2.84 l-0.52 1.56 c-1.44 4.28 -3 -1.2 -10.12 -1.2 c-5.72 0 -8.52 3.72 -8.52 9.48 c0 9 6.84 12.76 12.32 12.76 c0.72 0 4.36 -0.56 6.44 -1.88 c0.32 -0.2 1.16 0.72 0.92 1.08 c-1.72 2.52 -7.08 4.64 -8.32 4.64 z"></path>
  </g>
</svg>