<svg width="516" height="339.31318949821224" viewBox="0 0 349.99999999999994 230.1542952022757"
  class="looka-1j8o68f">
  <defs id="SvgjsDefs7632"></defs>
  <g id="SvgjsG7633" featurekey="mugSzh-0"
    transform="matrix(1.4263156499723173,0,0,1.4263156499723173,103.43818432247309,-8.52729460736111)"
    fill="#39e991">
    <path xmlns="http://www.w3.org/2000/svg" fill="#39e991"
      d="M98.306,43.313c-0.176-0.046-4.398-1.139-10.643-1.139c-7.021,0-13.593,1.357-19.545,4.017  c-0.002-0.085-0.015-0.167-0.015-0.255c0.028-2.906,1.808-5.139,1.822-5.158c0.009-0.01,0.01-0.024,0.02-0.035  c0.081-0.107,0.142-0.226,0.187-0.353c0.015-0.042,0.025-0.083,0.036-0.127c0.024-0.107,0.034-0.216,0.031-0.329  c-0.002-0.038,0.003-0.075-0.002-0.113c-0.003-0.016,0.002-0.03,0-0.046c-0.003-0.012-0.01-0.022-0.013-0.035  c-0.002-0.059-0.005-0.118-0.02-0.177c-0.019-0.083-0.055-0.158-0.092-0.237c-0.024-0.052-0.029-0.108-0.062-0.158  c-0.015-0.023-0.039-0.036-0.057-0.058c-0.018-0.022-0.021-0.049-0.039-0.071c-0.018-0.022-1.84-2.223-1.813-5.122  c0.028-2.906,1.808-5.139,1.822-5.158c0.009-0.011,0.01-0.025,0.02-0.035c0.081-0.107,0.142-0.226,0.187-0.353  c0.015-0.043,0.025-0.083,0.036-0.127c0.024-0.107,0.034-0.216,0.031-0.328c-0.002-0.038,0.003-0.075-0.002-0.113  c-0.003-0.015,0.002-0.03,0-0.045c-0.003-0.012-0.01-0.023-0.013-0.035c-0.002-0.059-0.005-0.118-0.02-0.177  c-0.019-0.083-0.055-0.158-0.092-0.236c-0.024-0.052-0.029-0.108-0.062-0.159c-0.015-0.023-0.039-0.036-0.057-0.058  c-0.018-0.022-0.021-0.049-0.039-0.071c-0.018-0.021-1.84-2.223-1.813-5.122c0.028-2.905,1.808-5.139,1.822-5.158  c0.009-0.01,0.01-0.024,0.02-0.035c0.081-0.107,0.142-0.226,0.187-0.353c0.015-0.042,0.025-0.083,0.036-0.127  c0.024-0.107,0.034-0.216,0.031-0.329c-0.002-0.038,0.003-0.075-0.002-0.113c-0.003-0.016,0.002-0.03,0-0.046  c-0.022-0.132-0.066-0.255-0.125-0.371c-0.011-0.022-0.029-0.041-0.043-0.063c-0.064-0.11-0.144-0.207-0.237-0.292  c-0.017-0.015-0.024-0.036-0.042-0.05c-0.017-0.014-0.038-0.017-0.057-0.029c-0.1-0.075-0.211-0.134-0.333-0.177  c-0.024-0.008-0.046-0.023-0.07-0.03c-0.009-0.002-0.017-0.008-0.024-0.01L35.611,6.003c-0.009-0.002-0.017,0-0.025-0.001  c-0.1-0.023-0.202-0.017-0.304-0.016c-0.062,0.001-0.125-0.014-0.185-0.004c-0.071,0.011-0.138,0.049-0.207,0.073  c-0.086,0.03-0.175,0.051-0.254,0.1c-0.008,0.005-0.017,0.005-0.025,0.01L4.27,25.693c-0.821,0.387-3.175,1.95-3.175,7.145  c0,2.959,1.021,4.788,1.913,5.826c-0.92,0.983-1.913,2.819-1.913,6.192c0,2.958,1.021,4.788,1.913,5.825  c-0.92,0.983-1.913,2.818-1.913,6.192c0,5.14,3.083,6.886,3.214,6.958c0.091,0.05,0.187,0.087,0.283,0.111  c0.002,0,0.004,0.002,0.007,0.002l21.338,5.527v17.124c0,0.391,0.182,0.76,0.491,0.999c0.31,0.24,0.713,0.321,1.091,0.224  c0.04-0.011,4.076-1.04,9.931-1.04c6.325,0,15.699,1.221,24.442,7.032c0.017,0.011,0.035,0.014,0.052,0.023  c0.019,0.012,0.032,0.026,0.052,0.037c0.049,0.026,0.104,0.042,0.158,0.062c0.034,0.012,0.066,0.029,0.104,0.039  c0.109,0.031,0.222,0.05,0.336,0.05c0.112,0,0.225-0.019,0.335-0.05c0.035-0.01,0.068-0.027,0.103-0.039  c0.054-0.02,0.107-0.035,0.159-0.062c0.019-0.011,0.032-0.025,0.05-0.037c0.018-0.01,0.037-0.013,0.052-0.023  c8.744-5.812,18.118-7.032,24.443-7.032c5.855,0,9.891,1.029,9.932,1.04c0.377,0.098,0.781,0.017,1.091-0.224  c0.309-0.239,0.491-0.608,0.491-0.999v-42.06C99.249,43.962,98.861,43.46,98.306,43.313z M65.916,19.398  c-0.194,0.759-0.33,1.587-0.341,2.479c-0.015,1.591,0.383,3.003,0.859,4.126c0.242,0.57,0.501,1.071,0.741,1.473L43.76,42.554  c-0.525-0.063-1.05-0.127-1.573-0.174c-1.358-0.121-2.735-0.189-4.093-0.204l-0.237-0.001c-0.043-0.358-0.076-0.73-0.076-1.137  c0-2.472,1.286-4.167,1.617-4.563l7.679-4.945l5.009-3.225l6.664-4.293L65.916,19.398z M65.68,47.366  c-0.109,0.056-0.22,0.111-0.326,0.167c-0.96,0.514-1.879,1.063-2.765,1.627c-0.933-0.593-1.903-1.157-2.927-1.698l6.254-4.029  c-0.194,0.759-0.33,1.588-0.341,2.479C65.57,46.417,65.61,46.901,65.68,47.366z M56.88,46.124c-0.258-0.114-0.513-0.249-0.771-0.357  c-2.692-1.124-5.541-1.978-8.477-2.577l4.454-2.867l6.664-4.292l7.165-4.615c-0.194,0.759-0.33,1.587-0.341,2.479  c-0.015,1.591,0.383,3.003,0.859,4.126c0.242,0.57,0.501,1.071,0.741,1.473L56.88,46.124z M38.852,12.806l14.126,3.717l-5.068,3.209  l-14.125-3.717L38.852,12.806z M5.003,28.227l0.118-0.077l9.984,2.585l21.396,5.541c-0.617,1.11-1.248,2.729-1.248,4.762  c0,0.413,0.023,0.805,0.059,1.185c-1.793,0.075-3.544,0.234-5.204,0.478c-1.271,0.186-2.206,0.376-2.734,0.495L5.433,37.514  c-0.083-0.061-0.212-0.174-0.357-0.322c-0.568-0.579-1.454-1.872-1.454-4.354C3.622,29.901,4.515,28.68,5.003,28.227z M5.003,40.245  l0.118-0.077l9.984,2.585l10.832,2.806v9.283L5.433,49.532c-0.083-0.061-0.212-0.174-0.357-0.322  c-0.568-0.58-1.454-1.873-1.454-4.354C3.622,41.919,4.515,40.697,5.003,40.245z M5.433,61.55c-0.407-0.301-1.811-1.563-1.811-4.677  c0-2.937,0.893-4.158,1.381-4.61l0.118-0.076l20.815,5.392v9.282L5.433,61.55z M28.465,85.035V45.549  c0.497-0.101,1.177-0.225,2.01-0.347c1.612-0.236,3.315-0.392,5.065-0.462c0.634-0.025,1.298-0.039,1.986-0.039l0.542,0.003  c1.292,0.013,2.602,0.079,3.895,0.194c1.308,0.117,2.63,0.291,3.93,0.517c3.214,0.562,6.325,1.465,9.241,2.684  c0.92,0.384,1.844,0.811,2.744,1.269c1.229,0.626,2.365,1.273,3.451,1.967v39.141c-8.683-5.108-17.675-6.227-23.879-6.227  C33.425,84.25,30.248,84.704,28.465,85.035z M96.722,85.035c-1.784-0.331-4.96-0.785-8.986-0.785  c-6.204,0-15.195,1.118-23.878,6.227V51.336c0.856-0.548,1.758-1.075,2.689-1.575c0.752-0.402,1.505-0.771,2.258-1.115  c5.715-2.616,12.06-3.943,18.858-3.943c4.233,0,7.525,0.54,9.059,0.848V85.035z"></path>
  </g>
  <g id="SvgjsG7634" featurekey="PPkF4s-0"
    transform="matrix(3.5504161146938444,0,0,3.5504161146938444,-5.467640681190894,127.75086164450533)"
    fill="#ffffff">
    <path
      d="M4.7 11.38 l7 0 l0 2.76 l-7 0 l0 3.12 l7.92 0 l0 2.74 l-11.08 0 l0 -14.62 l11.08 0 l0 2.74 l-7.92 0 l0 3.26 z M23.520000000000003 18.9 q-0.38 0.52 -1.31 0.93 t-2.03 0.41 q-1.7 0 -2.95 -0.76 t-1.91 -2.07 t-0.66 -2.91 t0.66 -2.91 t1.91 -2.07 t2.95 -0.76 q1.14 0 2.01 0.39 t1.33 0.99 l0 -1.14 l2.96 0 l0 11 l-2.96 0 l0 -1.1 z M22.82 12.25 q-0.82 -0.87 -2.2 -0.87 q-1.4 0 -2.21 0.87 t-0.81 2.25 q0 1.34 0.83 2.22 t2.19 0.88 q1.4 0 2.21 -0.83 t0.81 -2.27 q0 -1.38 -0.82 -2.25 z M28.820000000000004 18.54 l1.56 -2.08 q0.72 0.5 1.68 0.84 t1.88 0.34 q0.68 0 1.13 -0.28 t0.45 -0.7 t-0.51 -0.59 t-0.99 -0.24 t-0.62 -0.09 q-1.2 -0.2 -2.07 -0.48 t-1.58 -1 t-0.71 -1.98 q0 -2.08 1.51 -2.78 t3.03 -0.7 q1.3 0 2.4 0.38 t2.18 1.2 l-1.56 2.04 q-0.78 -0.46 -1.54 -0.74 t-1.58 -0.28 q-0.5 0 -0.97 0.22 t-0.47 0.6 q0 0.48 0.65 0.68 t1.43 0.3 q1.4 0.24 2.24 0.5 t1.49 0.97 t0.65 2.01 q0 1.72 -1.18 2.65 t-3.34 0.93 q-3 0 -5.16 -1.72 z M42.18 24.12 l1.9 -4.52 l-4.72 -10.56 l3.46 0 l2.78 7 l2.56 -7 l3.46 0 l-6.14 15.08 l-3.3 0 z M66.36 8.12 l0 11.88 l-3.18 0 l0 -11.88 l-4.26 0 l0 -2.74 l11.68 0 l0 2.74 l-4.24 0 z M75.68 11.38 l7 0 l0 2.76 l-7 0 l0 3.12 l7.92 0 l0 2.74 l-11.08 0 l0 -14.62 l11.08 0 l0 2.74 l-7.92 0 l0 3.26 z M97.21000000000001 19.18 q-1.85 1.1 -4.03 1.1 q-2.14 0 -3.95 -1.02 t-2.87 -2.76 t-1.06 -3.8 q0 -2.04 1.06 -3.78 t2.87 -2.76 t3.95 -1.02 q2.16 0 4.02 1.09 t2.92 2.91 l-2.94 1.14 q-0.7 -1 -1.77 -1.64 t-2.23 -0.64 q-1.28 0 -2.36 0.65 t-1.71 1.73 t-0.63 2.32 t0.63 2.33 t1.71 1.74 t2.36 0.65 q1.16 0 2.23 -0.65 t1.77 -1.67 l2.94 1.14 q-1.06 1.84 -2.91 2.94 z"></path>
  </g>
  <g id="SvgjsG7635" featurekey="uwAHB0-0"
    transform="matrix(0.3459523741150595,0,0,0.3459523741150595,-0.3528715799617898,222.28041908823474)"
    fill="#39e991">
    <path
      d="M2.34 12.92 q0 2.7 1.66 4.45 t4.34 1.79 q2.7 0 4.34 -1.77 t1.66 -4.47 q0 -2.74 -1.64 -4.47 t-4.38 -1.77 q-2.68 0 -4.32 1.76 t-1.66 4.48 z M8.34 5.48 q2.16 0 3.82 0.95 t2.57 2.66 t0.93 3.83 q0 3.26 -2.06 5.33 t-5.26 2.11 q-3.22 0 -5.24 -2.09 t-2.08 -5.35 q0.02 -3.26 2.04 -5.32 t5.28 -2.12 z M33.507999999999996 12.08 q1.54 0 2.38 -0.69 t0.84 -1.83 t-0.82 -1.82 t-2.44 -0.7 l-2.86 0 l0 5.04 l2.9 0 z M33.108 5.84 q4.9 0 4.94 3.72 q0 3.14 -3.62 3.64 l4.12 6.8 l-1.5 0 l-3.98 -6.72 l-2.46 0 l0 6.72 l-1.32 0 l0 -14.16 l3.82 0 z M58.215999999999994 5.48 q3.2 -0.02 5.1 1.96 l-0.96 1 q-0.6 -0.74 -1.77 -1.25 t-2.37 -0.51 q-2.66 0 -4.32 1.76 t-1.68 4.48 q0 2.7 1.64 4.44 t4.38 1.8 q2.6 0 3.94 -0.84 l0 -4.76 l-3.4 0 l0 -1.2 l4.72 0 l0 6.72 q-2.3 1.28 -5.28 1.28 q-3.2 0 -5.23 -2.09 t-2.09 -5.35 q0.02 -3.28 2.06 -5.34 t5.26 -2.1 z M79.704 15.04 l6.5 0 l-3.2 -7.76 z M83.744 5.84 l5.96 14.16 l-1.48 0 l-1.54 -3.76 l-7.5 0 l-1.6 3.76 l-1.38 0 l6.18 -14.16 l1.36 0 z M104.11200000000001 5.84 l8.62 12.4 l0.04 0 l0 -12.4 l1.32 0 l0 14.16 l-1.7 0 l-8.62 -12.4 l-0.04 0 l0 12.4 l-1.32 0 l0 -14.16 l1.7 0 z M129.96 5.84 l0 14.16 l-1.32 0 l0 -14.16 l1.32 0 z M153.008 5.84 l0 1.08 l-8.34 11.88 l8.56 0 l0 1.2 l-10.2 0 l0 -1.04 l8.28 -11.92 l-8.16 0 l0 -1.2 l9.86 0 z M167.95600000000002 15.04 l6.5 0 l-3.2 -7.76 z M171.996 5.84 l5.96 14.16 l-1.48 0 l-1.54 -3.76 l-7.5 0 l-1.6 3.76 l-1.38 0 l6.18 -14.16 l1.36 0 z M215.83200000000002 5.84 l0 1.2 l-4.84 0 l0 12.96 l-1.32 0 l0 -12.96 l-4.84 0 l0 -1.2 l11 0 z M229.74 5.84 l0 8.5 q0 2.3 0.95 3.54 t2.89 1.28 q3.8 0 3.84 -5.02 l0 -8.3 l1.32 0 l0 8.64 q0 2.78 -1.3 4.32 t-3.86 1.56 q-2.52 0 -3.83 -1.53 t-1.33 -4.25 l0 -8.74 l1.32 0 z M277.55600000000004 5.84 l0 1.2 l-7.34 0 l0 5.04 l6.88 0 l0 1.2 l-6.88 0 l0 5.52 l7.66 0 l0 1.2 l-8.98 0 l0 -14.16 l8.66 0 z M275.49600000000004 2.0799999999999983 l-2.68 2.88 l-1 0 l2.08 -2.88 l1.6 0 z M291.54400000000004 5.84 l4.08 5.76 l4.02 -5.76 l1.58 0 l-4.8 6.72 l5.26 7.44 l-1.64 0 l-4.48 -6.4 l-4.48 6.4 l-1.58 0 l5.32 -7.44 l-4.84 -6.72 l1.56 0 z M315.632 5.84 l0 14.16 l-1.32 0 l0 -14.16 l1.32 0 z M339.48 5.84 l0 1.2 l-4.84 0 l0 12.96 l-1.32 0 l0 -12.96 l-4.84 0 l0 -1.2 l11 0 z M352.728 12.92 q0 2.7 1.66 4.45 t4.34 1.79 q2.7 0 4.34 -1.77 t1.66 -4.47 q0 -2.74 -1.64 -4.47 t-4.38 -1.77 q-2.68 0 -4.32 1.76 t-1.66 4.48 z M358.728 5.48 q2.16 0 3.82 0.95 t2.57 2.66 t0.93 3.83 q0 3.26 -2.06 5.33 t-5.26 2.11 q-3.22 0 -5.24 -2.09 t-2.08 -5.35 q0.02 -3.26 2.04 -5.32 t5.28 -2.12 z M381.4560000000001 18.2 l-1.54 4.56 l-1.18 0 l1.32 -4.56 l1.4 0 z M413.07200000000006 15.04 l6.5 0 l-3.2 -7.76 z M417.112 5.84 l5.96 14.16 l-1.48 0 l-1.54 -3.76 l-7.5 0 l-1.6 3.76 l-1.38 0 l6.18 -14.16 l1.36 0 z M437.1 5.84 l0 12.96 l6.6 0 l0 1.2 l-7.92 0 l0 -14.16 l1.32 0 z M462.848 5.48 q3.14 0 4.88 2.22 l-1.08 0.9 q-0.6 -0.9 -1.6 -1.41 t-2.2 -0.51 q-2.64 0 -4.3 1.74 t-1.7 4.5 q0 2.74 1.67 4.47 t4.33 1.77 q1.14 0 2.32 -0.57 t1.86 -1.63 l1.08 0.82 q-1.88 2.58 -5.26 2.58 q-3.28 -0.02 -5.27 -2.12 t-2.05 -5.32 q0 -3.26 2.05 -5.33 t5.27 -2.11 z M482.85600000000005 15.04 l6.5 0 l-3.2 -7.76 z M486.896 5.84 l5.96 14.16 l-1.48 0 l-1.54 -3.76 l-7.5 0 l-1.6 3.76 l-1.38 0 l6.18 -14.16 l1.36 0 z M507.264 5.84 l8.62 12.4 l0.04 0 l0 -12.4 l1.32 0 l0 14.16 l-1.7 0 l-8.62 -12.4 l-0.04 0 l0 12.4 l-1.32 0 l0 -14.16 l1.7 0 z M540.292 5.84 l0 1.08 l-8.34 11.88 l8.56 0 l0 1.2 l-10.2 0 l0 -1.04 l8.28 -11.92 l-8.16 0 l0 -1.2 l9.86 0 z M555.24 15.04 l6.5 0 l-3.2 -7.76 z M559.28 5.84 l5.96 14.16 l-1.48 0 l-1.54 -3.76 l-7.5 0 l-1.6 3.76 l-1.38 0 l6.18 -14.16 l1.36 0 z M603.1160000000001 5.84 l0 1.2 l-4.84 0 l0 12.96 l-1.32 0 l0 -12.96 l-4.84 0 l0 -1.2 l11 0 z M617.0240000000001 5.84 l0 8.5 q0 2.3 0.95 3.54 t2.89 1.28 q3.8 0 3.84 -5.02 l0 -8.3 l1.32 0 l0 8.64 q0 2.78 -1.3 4.32 t-3.86 1.56 q-2.52 0 -3.83 -1.53 t-1.33 -4.25 l0 -8.74 l1.32 0 z M658.0200000000001 5.84 l5.16 11.88 l5.16 -11.88 l1.88 0 l0 14.16 l-1.32 0 l0 -12.48 l-0.04 0 l-5.4 12.48 l-0.58 0 l-5.48 -12.48 l-0.04 0 l0 12.48 l-1.32 0 l0 -14.16 l1.98 0 z M686.2880000000001 15.04 l6.5 0 l-3.2 -7.76 z M690.3280000000001 5.84 l5.96 14.16 l-1.48 0 l-1.54 -3.76 l-7.5 0 l-1.6 3.76 l-1.38 0 l6.18 -14.16 l1.36 0 z M692.0680000000001 2.0799999999999983 l-2.68 2.88 l-1 0 l2.08 -2.88 l1.6 0 z M709.1160000000001 5.84 l4.08 5.76 l4.02 -5.76 l1.58 0 l-4.8 6.72 l5.26 7.44 l-1.64 0 l-4.48 -6.4 l-4.48 6.4 l-1.58 0 l5.32 -7.44 l-4.84 -6.72 l1.56 0 z M733.2040000000002 5.84 l0 14.16 l-1.32 0 l0 -14.16 l1.32 0 z M749.5920000000002 5.84 l5.16 11.88 l5.16 -11.88 l1.88 0 l0 14.16 l-1.32 0 l0 -12.48 l-0.04 0 l-5.4 12.48 l-0.58 0 l-5.48 -12.48 l-0.04 0 l0 12.48 l-1.32 0 l0 -14.16 l1.98 0 z M776.6000000000003 12.92 q0 2.7 1.66 4.45 t4.34 1.79 q2.7 0 4.34 -1.77 t1.66 -4.47 q0 -2.74 -1.64 -4.47 t-4.38 -1.77 q-2.68 0 -4.32 1.76 t-1.66 4.48 z M782.6000000000003 5.48 q2.16 0 3.82 0.95 t2.57 2.66 t0.93 3.83 q0 3.26 -2.06 5.33 t-5.26 2.11 q-3.22 0 -5.24 -2.09 t-2.08 -5.35 q0.02 -3.26 2.04 -5.32 t5.28 -2.12 z M823.7960000000003 12.08 q1.28 0 2.1 -0.63 t0.84 -1.87 q0 -1.16 -0.82 -1.85 t-2.18 -0.69 l-3 0 l0 5.04 l3.06 0 z M823.4560000000002 5.84 q2.16 0 3.36 0.96 t1.24 2.78 q0 1.7 -1.16 2.69 t-3.02 1.01 l-3.14 0 l0 6.72 l-1.32 0 l0 -14.16 l4.04 0 z M841.9640000000003 12.92 q0 2.7 1.66 4.45 t4.34 1.79 q2.7 0 4.34 -1.77 t1.66 -4.47 q0 -2.74 -1.64 -4.47 t-4.38 -1.77 q-2.68 0 -4.32 1.76 t-1.66 4.48 z M847.9640000000003 5.48 q2.16 0 3.82 0.95 t2.57 2.66 t0.93 3.83 q0 3.26 -2.06 5.33 t-5.26 2.11 q-3.22 0 -5.24 -2.09 t-2.08 -5.35 q0.02 -3.26 2.04 -5.32 t5.28 -2.12 z M878.2120000000002 5.84 l0 1.2 l-4.84 0 l0 12.96 l-1.32 0 l0 -12.96 l-4.84 0 l0 -1.2 l11 0 z M899.7200000000003 5.84 l0 1.2 l-7.34 0 l0 5.04 l6.88 0 l0 1.2 l-6.88 0 l0 5.52 l7.66 0 l0 1.2 l-8.98 0 l0 -14.16 l8.66 0 z M915.2880000000002 5.84 l8.62 12.4 l0.04 0 l0 -12.4 l1.32 0 l0 14.16 l-1.7 0 l-8.62 -12.4 l-0.04 0 l0 12.4 l-1.32 0 l0 -14.16 l1.7 0 z M946.2160000000002 5.48 q3.14 0 4.88 2.22 l-1.08 0.9 q-0.6 -0.9 -1.6 -1.41 t-2.2 -0.51 q-2.64 0 -4.3 1.74 t-1.7 4.5 q0 2.74 1.67 4.47 t4.33 1.77 q1.14 0 2.32 -0.57 t1.86 -1.63 l1.08 0.82 q-1.88 2.58 -5.26 2.58 q-3.28 -0.02 -5.27 -2.12 t-2.05 -5.32 q0 -3.26 2.05 -5.33 t5.27 -2.11 z M965.8840000000002 5.84 l0 14.16 l-1.32 0 l0 -14.16 l1.32 0 z M982.0920000000003 15.04 l6.5 0 l-3.2 -7.76 z M986.1320000000003 5.84 l5.96 14.16 l-1.48 0 l-1.54 -3.76 l-7.5 0 l-1.6 3.76 l-1.38 0 l6.18 -14.16 l1.36 0 z M1006.1200000000003 5.84 l0 12.96 l6.6 0 l0 1.2 l-7.92 0 l0 -14.16 l1.32 0 z"></path>
  </g>
</svg>